<mxfile host="Electron" modified="2023-09-15T13:36:20.642Z" agent="Mozilla/5.0 (Windows NT 10.0; Win64; x64) AppleWebKit/537.36 (KHTML, like Gecko) draw.io/21.6.8 Chrome/114.0.5735.289 Electron/25.5.0 Safari/537.36" etag="Ws15m2otBGvPsQ9qTjMx" version="21.6.8" type="device">
  <diagram name="Страница — 1" id="rTAX4zm_ztd9nBIUN0mN">
    <mxGraphModel dx="1418" dy="828" grid="1" gridSize="10" guides="1" tooltips="1" connect="1" arrows="1" fold="1" page="1" pageScale="1" pageWidth="827" pageHeight="1169" math="0" shadow="0">
      <root>
        <mxCell id="0" />
        <mxCell id="1" parent="0" />
        <mxCell id="u-5vNotoUuFlNv7l3JVk-10" style="edgeStyle=orthogonalEdgeStyle;rounded=0;orthogonalLoop=1;jettySize=auto;html=1;entryX=0;entryY=0.5;entryDx=0;entryDy=0;endArrow=none;endFill=0;" parent="1" source="u-5vNotoUuFlNv7l3JVk-2" target="u-5vNotoUuFlNv7l3JVk-3" edge="1">
          <mxGeometry relative="1" as="geometry" />
        </mxCell>
        <mxCell id="u-5vNotoUuFlNv7l3JVk-14" style="rounded=0;orthogonalLoop=1;jettySize=auto;html=1;entryX=0.5;entryY=0;entryDx=0;entryDy=0;exitX=0.6;exitY=0.75;exitDx=0;exitDy=0;exitPerimeter=0;endArrow=none;endFill=0;" parent="1" source="u-5vNotoUuFlNv7l3JVk-2" target="u-5vNotoUuFlNv7l3JVk-8" edge="1">
          <mxGeometry relative="1" as="geometry" />
        </mxCell>
        <mxCell id="u-5vNotoUuFlNv7l3JVk-22" style="edgeStyle=orthogonalEdgeStyle;rounded=0;orthogonalLoop=1;jettySize=auto;html=1;entryX=0;entryY=0.5;entryDx=0;entryDy=0;endArrow=none;endFill=0;" parent="1" source="u-5vNotoUuFlNv7l3JVk-2" target="u-5vNotoUuFlNv7l3JVk-21" edge="1">
          <mxGeometry relative="1" as="geometry">
            <Array as="points">
              <mxPoint x="390" y="330" />
              <mxPoint x="390" y="420" />
            </Array>
          </mxGeometry>
        </mxCell>
        <mxCell id="u-5vNotoUuFlNv7l3JVk-32" style="edgeStyle=orthogonalEdgeStyle;rounded=0;orthogonalLoop=1;jettySize=auto;html=1;entryX=0;entryY=0.5;entryDx=0;entryDy=0;endArrow=none;endFill=0;" parent="1" source="u-5vNotoUuFlNv7l3JVk-2" target="u-5vNotoUuFlNv7l3JVk-24" edge="1">
          <mxGeometry relative="1" as="geometry">
            <Array as="points">
              <mxPoint x="320" y="165" />
            </Array>
          </mxGeometry>
        </mxCell>
        <mxCell id="rhHp7d02nl-HyTAbp77T-27" style="edgeStyle=orthogonalEdgeStyle;rounded=0;orthogonalLoop=1;jettySize=auto;html=1;entryX=0;entryY=0.5;entryDx=0;entryDy=0;endArrow=none;endFill=0;" parent="1" source="u-5vNotoUuFlNv7l3JVk-2" target="rhHp7d02nl-HyTAbp77T-24" edge="1">
          <mxGeometry relative="1" as="geometry">
            <Array as="points">
              <mxPoint x="320" y="240" />
            </Array>
          </mxGeometry>
        </mxCell>
        <mxCell id="mm0qBusBZBHqJ1yEfWo5-28" style="edgeStyle=orthogonalEdgeStyle;rounded=0;orthogonalLoop=1;jettySize=auto;html=1;entryX=0.5;entryY=1;entryDx=0;entryDy=0;endArrow=none;endFill=0;" parent="1" source="u-5vNotoUuFlNv7l3JVk-2" target="u-5vNotoUuFlNv7l3JVk-16" edge="1">
          <mxGeometry relative="1" as="geometry" />
        </mxCell>
        <mxCell id="u-5vNotoUuFlNv7l3JVk-2" value="Сотрудник" style="whiteSpace=wrap;html=1;align=center;" parent="1" vertex="1">
          <mxGeometry x="270" y="310" width="100" height="40" as="geometry" />
        </mxCell>
        <mxCell id="u-5vNotoUuFlNv7l3JVk-13" style="edgeStyle=orthogonalEdgeStyle;rounded=0;orthogonalLoop=1;jettySize=auto;html=1;entryX=0;entryY=0.5;entryDx=0;entryDy=0;endArrow=none;endFill=0;" parent="1" source="u-5vNotoUuFlNv7l3JVk-3" target="u-5vNotoUuFlNv7l3JVk-6" edge="1">
          <mxGeometry relative="1" as="geometry" />
        </mxCell>
        <mxCell id="u-5vNotoUuFlNv7l3JVk-3" value="Создаёт" style="shape=rhombus;perimeter=rhombusPerimeter;whiteSpace=wrap;html=1;align=center;" parent="1" vertex="1">
          <mxGeometry x="440" y="300" width="120" height="60" as="geometry" />
        </mxCell>
        <mxCell id="rhHp7d02nl-HyTAbp77T-4" style="edgeStyle=orthogonalEdgeStyle;rounded=0;orthogonalLoop=1;jettySize=auto;html=1;entryX=0.07;entryY=0.5;entryDx=0;entryDy=0;entryPerimeter=0;endArrow=none;endFill=0;" parent="1" source="u-5vNotoUuFlNv7l3JVk-6" target="rhHp7d02nl-HyTAbp77T-2" edge="1">
          <mxGeometry relative="1" as="geometry" />
        </mxCell>
        <mxCell id="u-5vNotoUuFlNv7l3JVk-6" value="Заказ на поставку" style="whiteSpace=wrap;html=1;align=center;" parent="1" vertex="1">
          <mxGeometry x="590" y="310" width="100" height="40" as="geometry" />
        </mxCell>
        <mxCell id="u-5vNotoUuFlNv7l3JVk-7" value="Филиал" style="whiteSpace=wrap;html=1;align=center;" parent="1" vertex="1">
          <mxGeometry x="280" y="530" width="100" height="40" as="geometry" />
        </mxCell>
        <mxCell id="u-5vNotoUuFlNv7l3JVk-15" style="edgeStyle=orthogonalEdgeStyle;rounded=0;orthogonalLoop=1;jettySize=auto;html=1;endArrow=none;endFill=0;" parent="1" source="u-5vNotoUuFlNv7l3JVk-8" target="u-5vNotoUuFlNv7l3JVk-7" edge="1">
          <mxGeometry relative="1" as="geometry" />
        </mxCell>
        <mxCell id="u-5vNotoUuFlNv7l3JVk-8" value="Работает" style="shape=rhombus;perimeter=rhombusPerimeter;whiteSpace=wrap;html=1;align=center;rotation=0;" parent="1" vertex="1">
          <mxGeometry x="270" y="420" width="120" height="60" as="geometry" />
        </mxCell>
        <mxCell id="mm0qBusBZBHqJ1yEfWo5-29" style="edgeStyle=orthogonalEdgeStyle;rounded=0;orthogonalLoop=1;jettySize=auto;html=1;entryX=0;entryY=0.5;entryDx=0;entryDy=0;endArrow=none;endFill=0;" parent="1" source="u-5vNotoUuFlNv7l3JVk-16" target="u-5vNotoUuFlNv7l3JVk-18" edge="1">
          <mxGeometry relative="1" as="geometry">
            <mxPoint x="430" y="110" as="targetPoint" />
          </mxGeometry>
        </mxCell>
        <mxCell id="u-5vNotoUuFlNv7l3JVk-16" value="Состотит" style="shape=rhombus;perimeter=rhombusPerimeter;whiteSpace=wrap;html=1;align=center;" parent="1" vertex="1">
          <mxGeometry x="265" y="90" width="110" height="50" as="geometry" />
        </mxCell>
        <mxCell id="u-5vNotoUuFlNv7l3JVk-18" value="Должность" style="whiteSpace=wrap;html=1;align=center;" parent="1" vertex="1">
          <mxGeometry x="414" y="95" width="100" height="40" as="geometry" />
        </mxCell>
        <mxCell id="rhHp7d02nl-HyTAbp77T-5" style="edgeStyle=orthogonalEdgeStyle;rounded=0;orthogonalLoop=1;jettySize=auto;html=1;entryX=0;entryY=0.5;entryDx=0;entryDy=0;endArrow=none;endFill=0;" parent="1" source="u-5vNotoUuFlNv7l3JVk-20" target="rhHp7d02nl-HyTAbp77T-3" edge="1">
          <mxGeometry relative="1" as="geometry">
            <mxPoint x="740" y="470" as="targetPoint" />
          </mxGeometry>
        </mxCell>
        <mxCell id="rhHp7d02nl-HyTAbp77T-10" style="edgeStyle=orthogonalEdgeStyle;rounded=0;orthogonalLoop=1;jettySize=auto;html=1;endArrow=none;endFill=0;" parent="1" source="u-5vNotoUuFlNv7l3JVk-20" target="rhHp7d02nl-HyTAbp77T-9" edge="1">
          <mxGeometry relative="1" as="geometry" />
        </mxCell>
        <mxCell id="u-5vNotoUuFlNv7l3JVk-20" value="Закупка запчастей" style="whiteSpace=wrap;html=1;align=center;" parent="1" vertex="1">
          <mxGeometry x="590" y="450" width="100" height="40" as="geometry" />
        </mxCell>
        <mxCell id="u-5vNotoUuFlNv7l3JVk-23" style="edgeStyle=orthogonalEdgeStyle;rounded=0;orthogonalLoop=1;jettySize=auto;html=1;endArrow=none;endFill=0;" parent="1" source="u-5vNotoUuFlNv7l3JVk-21" target="u-5vNotoUuFlNv7l3JVk-20" edge="1">
          <mxGeometry relative="1" as="geometry" />
        </mxCell>
        <mxCell id="u-5vNotoUuFlNv7l3JVk-21" value="Создаёт" style="shape=rhombus;perimeter=rhombusPerimeter;whiteSpace=wrap;html=1;align=center;" parent="1" vertex="1">
          <mxGeometry x="440" y="440" width="120" height="60" as="geometry" />
        </mxCell>
        <mxCell id="u-5vNotoUuFlNv7l3JVk-33" style="edgeStyle=orthogonalEdgeStyle;rounded=0;orthogonalLoop=1;jettySize=auto;html=1;entryX=0;entryY=0.5;entryDx=0;entryDy=0;endArrow=none;endFill=0;" parent="1" source="u-5vNotoUuFlNv7l3JVk-24" target="u-5vNotoUuFlNv7l3JVk-25" edge="1">
          <mxGeometry relative="1" as="geometry" />
        </mxCell>
        <mxCell id="u-5vNotoUuFlNv7l3JVk-24" value="Создает" style="shape=rhombus;perimeter=rhombusPerimeter;whiteSpace=wrap;html=1;align=center;" parent="1" vertex="1">
          <mxGeometry x="480" y="135" width="120" height="60" as="geometry" />
        </mxCell>
        <mxCell id="mm0qBusBZBHqJ1yEfWo5-18" value="" style="edgeStyle=orthogonalEdgeStyle;rounded=0;orthogonalLoop=1;jettySize=auto;html=1;endArrow=none;endFill=0;" parent="1" source="u-5vNotoUuFlNv7l3JVk-25" target="mm0qBusBZBHqJ1yEfWo5-17" edge="1">
          <mxGeometry relative="1" as="geometry" />
        </mxCell>
        <mxCell id="mm0qBusBZBHqJ1yEfWo5-30" style="edgeStyle=orthogonalEdgeStyle;rounded=0;orthogonalLoop=1;jettySize=auto;html=1;entryX=0.5;entryY=0;entryDx=0;entryDy=0;endArrow=none;endFill=0;" parent="1" source="u-5vNotoUuFlNv7l3JVk-25" target="mm0qBusBZBHqJ1yEfWo5-25" edge="1">
          <mxGeometry relative="1" as="geometry" />
        </mxCell>
        <mxCell id="u-5vNotoUuFlNv7l3JVk-25" value="Складские документы" style="whiteSpace=wrap;html=1;align=center;" parent="1" vertex="1">
          <mxGeometry x="670" y="90" width="100" height="40" as="geometry" />
        </mxCell>
        <mxCell id="rhHp7d02nl-HyTAbp77T-20" style="edgeStyle=orthogonalEdgeStyle;rounded=0;orthogonalLoop=1;jettySize=auto;html=1;entryX=0.5;entryY=0;entryDx=0;entryDy=0;endArrow=none;endFill=0;" parent="1" source="rhHp7d02nl-HyTAbp77T-1" target="rhHp7d02nl-HyTAbp77T-17" edge="1">
          <mxGeometry relative="1" as="geometry" />
        </mxCell>
        <mxCell id="rhHp7d02nl-HyTAbp77T-21" style="edgeStyle=orthogonalEdgeStyle;rounded=0;orthogonalLoop=1;jettySize=auto;html=1;entryX=0.5;entryY=0;entryDx=0;entryDy=0;endArrow=none;endFill=0;" parent="1" source="rhHp7d02nl-HyTAbp77T-1" target="rhHp7d02nl-HyTAbp77T-16" edge="1">
          <mxGeometry relative="1" as="geometry" />
        </mxCell>
        <mxCell id="rhHp7d02nl-HyTAbp77T-1" value="Запчасти" style="whiteSpace=wrap;html=1;align=center;" parent="1" vertex="1">
          <mxGeometry x="930" y="350" width="100" height="40" as="geometry" />
        </mxCell>
        <mxCell id="rhHp7d02nl-HyTAbp77T-6" style="edgeStyle=orthogonalEdgeStyle;rounded=0;orthogonalLoop=1;jettySize=auto;html=1;endArrow=none;endFill=0;" parent="1" source="rhHp7d02nl-HyTAbp77T-2" target="rhHp7d02nl-HyTAbp77T-1" edge="1">
          <mxGeometry relative="1" as="geometry" />
        </mxCell>
        <mxCell id="rhHp7d02nl-HyTAbp77T-2" value="Содержит список&amp;nbsp;" style="shape=rhombus;perimeter=rhombusPerimeter;whiteSpace=wrap;html=1;align=center;" parent="1" vertex="1">
          <mxGeometry x="760" y="302.5" width="100" height="55" as="geometry" />
        </mxCell>
        <mxCell id="rhHp7d02nl-HyTAbp77T-7" style="edgeStyle=orthogonalEdgeStyle;rounded=0;orthogonalLoop=1;jettySize=auto;html=1;entryX=0;entryY=0.25;entryDx=0;entryDy=0;endArrow=none;endFill=0;" parent="1" source="rhHp7d02nl-HyTAbp77T-3" target="rhHp7d02nl-HyTAbp77T-1" edge="1">
          <mxGeometry relative="1" as="geometry" />
        </mxCell>
        <mxCell id="rhHp7d02nl-HyTAbp77T-3" value="Содержит &lt;br&gt;список" style="shape=rhombus;perimeter=rhombusPerimeter;whiteSpace=wrap;html=1;align=center;" parent="1" vertex="1">
          <mxGeometry x="760" y="442.5" width="100" height="55" as="geometry" />
        </mxCell>
        <mxCell id="rhHp7d02nl-HyTAbp77T-8" value="Статусы" style="whiteSpace=wrap;html=1;align=center;" parent="1" vertex="1">
          <mxGeometry x="590" y="595" width="100" height="40" as="geometry" />
        </mxCell>
        <mxCell id="rhHp7d02nl-HyTAbp77T-11" style="edgeStyle=orthogonalEdgeStyle;rounded=0;orthogonalLoop=1;jettySize=auto;html=1;entryX=0.5;entryY=0;entryDx=0;entryDy=0;endArrow=none;endFill=0;" parent="1" source="rhHp7d02nl-HyTAbp77T-9" target="rhHp7d02nl-HyTAbp77T-8" edge="1">
          <mxGeometry relative="1" as="geometry" />
        </mxCell>
        <mxCell id="rhHp7d02nl-HyTAbp77T-9" value="Имеет" style="shape=rhombus;perimeter=rhombusPerimeter;whiteSpace=wrap;html=1;align=center;" parent="1" vertex="1">
          <mxGeometry x="590" y="510" width="100" height="55" as="geometry" />
        </mxCell>
        <mxCell id="rhHp7d02nl-HyTAbp77T-23" style="edgeStyle=orthogonalEdgeStyle;rounded=0;orthogonalLoop=1;jettySize=auto;html=1;entryX=0.5;entryY=0;entryDx=0;entryDy=0;endArrow=none;endFill=0;" parent="1" source="rhHp7d02nl-HyTAbp77T-16" target="rhHp7d02nl-HyTAbp77T-19" edge="1">
          <mxGeometry relative="1" as="geometry" />
        </mxCell>
        <mxCell id="rhHp7d02nl-HyTAbp77T-16" value="Производятся" style="shape=rhombus;perimeter=rhombusPerimeter;whiteSpace=wrap;html=1;align=center;" parent="1" vertex="1">
          <mxGeometry x="1000" y="460" width="100" height="55" as="geometry" />
        </mxCell>
        <mxCell id="rhHp7d02nl-HyTAbp77T-22" style="edgeStyle=orthogonalEdgeStyle;rounded=0;orthogonalLoop=1;jettySize=auto;html=1;entryX=0.5;entryY=0;entryDx=0;entryDy=0;endArrow=none;endFill=0;" parent="1" source="rhHp7d02nl-HyTAbp77T-17" target="rhHp7d02nl-HyTAbp77T-18" edge="1">
          <mxGeometry relative="1" as="geometry" />
        </mxCell>
        <mxCell id="rhHp7d02nl-HyTAbp77T-17" value="Поставляются" style="shape=rhombus;perimeter=rhombusPerimeter;whiteSpace=wrap;html=1;align=center;" parent="1" vertex="1">
          <mxGeometry x="870" y="460" width="100" height="55" as="geometry" />
        </mxCell>
        <mxCell id="rhHp7d02nl-HyTAbp77T-18" value="Дилеры" style="whiteSpace=wrap;html=1;align=center;" parent="1" vertex="1">
          <mxGeometry x="870" y="560" width="100" height="40" as="geometry" />
        </mxCell>
        <mxCell id="rhHp7d02nl-HyTAbp77T-19" value="Производители" style="whiteSpace=wrap;html=1;align=center;" parent="1" vertex="1">
          <mxGeometry x="1000" y="560" width="100" height="40" as="geometry" />
        </mxCell>
        <mxCell id="rhHp7d02nl-HyTAbp77T-28" style="edgeStyle=orthogonalEdgeStyle;rounded=0;orthogonalLoop=1;jettySize=auto;html=1;entryX=0;entryY=0.5;entryDx=0;entryDy=0;endArrow=none;endFill=0;" parent="1" source="rhHp7d02nl-HyTAbp77T-24" target="rhHp7d02nl-HyTAbp77T-25" edge="1">
          <mxGeometry relative="1" as="geometry" />
        </mxCell>
        <mxCell id="rhHp7d02nl-HyTAbp77T-24" value="Создаёт" style="shape=rhombus;perimeter=rhombusPerimeter;whiteSpace=wrap;html=1;align=center;" parent="1" vertex="1">
          <mxGeometry x="440" y="210" width="120" height="60" as="geometry" />
        </mxCell>
        <mxCell id="rhHp7d02nl-HyTAbp77T-29" style="edgeStyle=orthogonalEdgeStyle;rounded=0;orthogonalLoop=1;jettySize=auto;html=1;entryX=0;entryY=0.5;entryDx=0;entryDy=0;endArrow=none;endFill=0;" parent="1" source="rhHp7d02nl-HyTAbp77T-25" target="rhHp7d02nl-HyTAbp77T-26" edge="1">
          <mxGeometry relative="1" as="geometry">
            <Array as="points">
              <mxPoint x="730" y="240" />
              <mxPoint x="730" y="240" />
            </Array>
          </mxGeometry>
        </mxCell>
        <mxCell id="rhHp7d02nl-HyTAbp77T-25" value="прогноз" style="whiteSpace=wrap;html=1;align=center;" parent="1" vertex="1">
          <mxGeometry x="590" y="220" width="100" height="40" as="geometry" />
        </mxCell>
        <mxCell id="rhHp7d02nl-HyTAbp77T-30" style="edgeStyle=orthogonalEdgeStyle;rounded=0;orthogonalLoop=1;jettySize=auto;html=1;entryX=0;entryY=0.25;entryDx=0;entryDy=0;endArrow=none;endFill=0;" parent="1" source="rhHp7d02nl-HyTAbp77T-26" target="rhHp7d02nl-HyTAbp77T-1" edge="1">
          <mxGeometry relative="1" as="geometry" />
        </mxCell>
        <mxCell id="rhHp7d02nl-HyTAbp77T-26" value="Содержит список&amp;nbsp;" style="shape=rhombus;perimeter=rhombusPerimeter;whiteSpace=wrap;html=1;align=center;" parent="1" vertex="1">
          <mxGeometry x="760" y="212.5" width="100" height="55" as="geometry" />
        </mxCell>
        <mxCell id="mm0qBusBZBHqJ1yEfWo5-6" style="edgeStyle=orthogonalEdgeStyle;rounded=0;orthogonalLoop=1;jettySize=auto;html=1;endArrow=none;endFill=0;entryX=0.5;entryY=0;entryDx=0;entryDy=0;" parent="1" source="mm0qBusBZBHqJ1yEfWo5-1" target="mm0qBusBZBHqJ1yEfWo5-2" edge="1">
          <mxGeometry relative="1" as="geometry">
            <mxPoint x="1290" y="520" as="targetPoint" />
          </mxGeometry>
        </mxCell>
        <mxCell id="mm0qBusBZBHqJ1yEfWo5-1" value="Склад" style="whiteSpace=wrap;html=1;align=center;" parent="1" vertex="1">
          <mxGeometry x="1150" y="460" width="100" height="40" as="geometry" />
        </mxCell>
        <mxCell id="mm0qBusBZBHqJ1yEfWo5-8" style="edgeStyle=orthogonalEdgeStyle;rounded=0;orthogonalLoop=1;jettySize=auto;html=1;entryX=0.5;entryY=1;entryDx=0;entryDy=0;exitX=0.5;exitY=1;exitDx=0;exitDy=0;endArrow=none;endFill=0;" parent="1" source="mm0qBusBZBHqJ1yEfWo5-2" target="u-5vNotoUuFlNv7l3JVk-7" edge="1">
          <mxGeometry relative="1" as="geometry">
            <Array as="points">
              <mxPoint x="1200" y="650" />
              <mxPoint x="330" y="650" />
            </Array>
          </mxGeometry>
        </mxCell>
        <mxCell id="mm0qBusBZBHqJ1yEfWo5-2" value="Находится" style="shape=rhombus;perimeter=rhombusPerimeter;whiteSpace=wrap;html=1;align=center;rotation=0;" parent="1" vertex="1">
          <mxGeometry x="1140" y="550" width="120" height="60" as="geometry" />
        </mxCell>
        <mxCell id="mm0qBusBZBHqJ1yEfWo5-14" style="edgeStyle=orthogonalEdgeStyle;rounded=0;orthogonalLoop=1;jettySize=auto;html=1;endArrow=none;endFill=0;" parent="1" source="mm0qBusBZBHqJ1yEfWo5-10" target="mm0qBusBZBHqJ1yEfWo5-11" edge="1">
          <mxGeometry relative="1" as="geometry" />
        </mxCell>
        <mxCell id="mm0qBusBZBHqJ1yEfWo5-15" style="edgeStyle=orthogonalEdgeStyle;rounded=0;orthogonalLoop=1;jettySize=auto;html=1;entryX=0.5;entryY=0;entryDx=0;entryDy=0;endArrow=none;endFill=0;" parent="1" source="mm0qBusBZBHqJ1yEfWo5-10" target="mm0qBusBZBHqJ1yEfWo5-12" edge="1">
          <mxGeometry relative="1" as="geometry" />
        </mxCell>
        <mxCell id="mm0qBusBZBHqJ1yEfWo5-16" style="edgeStyle=orthogonalEdgeStyle;rounded=0;orthogonalLoop=1;jettySize=auto;html=1;entryX=0.5;entryY=0;entryDx=0;entryDy=0;endArrow=none;endFill=0;" parent="1" source="mm0qBusBZBHqJ1yEfWo5-10" target="mm0qBusBZBHqJ1yEfWo5-13" edge="1">
          <mxGeometry relative="1" as="geometry" />
        </mxCell>
        <mxCell id="mm0qBusBZBHqJ1yEfWo5-10" value="Адрес хранения" style="whiteSpace=wrap;html=1;align=center;" parent="1" vertex="1">
          <mxGeometry x="1380" y="460" width="100" height="40" as="geometry" />
        </mxCell>
        <mxCell id="mm0qBusBZBHqJ1yEfWo5-11" value="Содержит" style="shape=rhombus;perimeter=rhombusPerimeter;whiteSpace=wrap;html=1;align=center;" parent="1" vertex="1">
          <mxGeometry x="1270" y="550" width="100" height="55" as="geometry" />
        </mxCell>
        <mxCell id="mm0qBusBZBHqJ1yEfWo5-12" value="Сожержит" style="shape=rhombus;perimeter=rhombusPerimeter;whiteSpace=wrap;html=1;align=center;" parent="1" vertex="1">
          <mxGeometry x="1380" y="550" width="100" height="55" as="geometry" />
        </mxCell>
        <mxCell id="mm0qBusBZBHqJ1yEfWo5-13" value="Содержит" style="shape=rhombus;perimeter=rhombusPerimeter;whiteSpace=wrap;html=1;align=center;" parent="1" vertex="1">
          <mxGeometry x="1490" y="550" width="100" height="55" as="geometry" />
        </mxCell>
        <mxCell id="mm0qBusBZBHqJ1yEfWo5-19" style="edgeStyle=orthogonalEdgeStyle;rounded=0;orthogonalLoop=1;jettySize=auto;html=1;endArrow=none;endFill=0;" parent="1" source="mm0qBusBZBHqJ1yEfWo5-17" target="mm0qBusBZBHqJ1yEfWo5-1" edge="1">
          <mxGeometry relative="1" as="geometry" />
        </mxCell>
        <mxCell id="mm0qBusBZBHqJ1yEfWo5-20" style="edgeStyle=orthogonalEdgeStyle;rounded=0;orthogonalLoop=1;jettySize=auto;html=1;entryX=1;entryY=0.5;entryDx=0;entryDy=0;endArrow=none;endFill=0;" parent="1" source="mm0qBusBZBHqJ1yEfWo5-17" target="rhHp7d02nl-HyTAbp77T-1" edge="1">
          <mxGeometry relative="1" as="geometry">
            <Array as="points">
              <mxPoint x="1200" y="370" />
            </Array>
          </mxGeometry>
        </mxCell>
        <mxCell id="mm0qBusBZBHqJ1yEfWo5-21" style="edgeStyle=orthogonalEdgeStyle;rounded=0;orthogonalLoop=1;jettySize=auto;html=1;endArrow=none;endFill=0;" parent="1" source="mm0qBusBZBHqJ1yEfWo5-17" target="mm0qBusBZBHqJ1yEfWo5-10" edge="1">
          <mxGeometry relative="1" as="geometry">
            <Array as="points">
              <mxPoint x="1200" y="370" />
              <mxPoint x="1430" y="370" />
            </Array>
          </mxGeometry>
        </mxCell>
        <mxCell id="mm0qBusBZBHqJ1yEfWo5-17" value="Сожержит &lt;br&gt;список" style="rhombus;whiteSpace=wrap;html=1;" parent="1" vertex="1">
          <mxGeometry x="1145" y="80" width="110" height="60" as="geometry" />
        </mxCell>
        <mxCell id="mm0qBusBZBHqJ1yEfWo5-23" value="Тип документа" style="whiteSpace=wrap;html=1;align=center;" parent="1" vertex="1">
          <mxGeometry x="980" y="145" width="100" height="40" as="geometry" />
        </mxCell>
        <mxCell id="mm0qBusBZBHqJ1yEfWo5-27" style="edgeStyle=orthogonalEdgeStyle;rounded=0;orthogonalLoop=1;jettySize=auto;html=1;entryX=0;entryY=0.5;entryDx=0;entryDy=0;endArrow=none;endFill=0;" parent="1" source="mm0qBusBZBHqJ1yEfWo5-25" target="mm0qBusBZBHqJ1yEfWo5-23" edge="1">
          <mxGeometry relative="1" as="geometry" />
        </mxCell>
        <mxCell id="mm0qBusBZBHqJ1yEfWo5-25" value="Имеет" style="shape=rhombus;perimeter=rhombusPerimeter;whiteSpace=wrap;html=1;align=center;" parent="1" vertex="1">
          <mxGeometry x="800" y="135" width="120" height="60" as="geometry" />
        </mxCell>
        <mxCell id="FWcL2EjOZqCgqhoCwvsI-3" style="edgeStyle=orthogonalEdgeStyle;rounded=0;orthogonalLoop=1;jettySize=auto;html=1;endArrow=none;endFill=0;" edge="1" parent="1" source="FWcL2EjOZqCgqhoCwvsI-2" target="u-5vNotoUuFlNv7l3JVk-6">
          <mxGeometry relative="1" as="geometry" />
        </mxCell>
        <mxCell id="FWcL2EjOZqCgqhoCwvsI-4" style="edgeStyle=orthogonalEdgeStyle;rounded=0;orthogonalLoop=1;jettySize=auto;html=1;endArrow=none;endFill=0;" edge="1" parent="1" source="FWcL2EjOZqCgqhoCwvsI-2" target="u-5vNotoUuFlNv7l3JVk-20">
          <mxGeometry relative="1" as="geometry" />
        </mxCell>
        <mxCell id="FWcL2EjOZqCgqhoCwvsI-2" value="Содержит" style="shape=rhombus;perimeter=rhombusPerimeter;whiteSpace=wrap;html=1;align=center;" vertex="1" parent="1">
          <mxGeometry x="590" y="370" width="100" height="55" as="geometry" />
        </mxCell>
      </root>
    </mxGraphModel>
  </diagram>
</mxfile>
